<svg xmlns="http://www.w3.org/2000/svg" viewBox="0 0 41.25 32.71"><defs><style>.cls-1{fill:gray;}</style></defs><title>quote</title><g id="Calque_2" data-name="Calque 2"><g id="Calque_1-2" data-name="Calque 1"><path class="cls-1" d="M1.16,32.71,0,30.8q9.88-5.29,9.88-9.88A2.72,2.72,0,0,0,9.06,19,12.13,12.13,0,0,0,6.16,17,12.9,12.9,0,0,1,1.6,13.57,7.42,7.42,0,0,1,.23,9,8.69,8.69,0,0,1,2.85,2.62,8.56,8.56,0,0,1,9.12,0a8,8,0,0,1,6.65,3.25,13.44,13.44,0,0,1,2.53,8.48,19.48,19.48,0,0,1-1.66,7.9,21.07,21.07,0,0,1-4.91,6.86A34.47,34.47,0,0,1,1.16,32.71Zm23,0L23,30.8q9.88-5.23,9.88-9.88,0-2-3.72-3.89a13.77,13.77,0,0,1-4.62-3.49A7.36,7.36,0,0,1,23.18,9a8.67,8.67,0,0,1,2.64-6.36A8.61,8.61,0,0,1,32.13,0a8,8,0,0,1,6.6,3.25,13.44,13.44,0,0,1,2.53,8.48A19.61,19.61,0,0,1,34.75,26.5a25.74,25.74,0,0,1-4.33,3.28A49.61,49.61,0,0,1,24.11,32.71Z"/></g></g></svg>